<mxfile host="app.diagrams.net" modified="2022-07-27T16:40:01.244Z" agent="5.0 (Windows NT 10.0; Win64; x64) AppleWebKit/537.36 (KHTML, like Gecko) Chrome/103.0.0.0 Safari/537.36" etag="9cEnwBZlWkEO-Lzbh2vi" version="20.2.1" type="github">
  <diagram id="C5RBs43oDa-KdzZeNtuy" name="Page-1">
    <mxGraphModel dx="2436" dy="468" grid="1" gridSize="10" guides="1" tooltips="1" connect="1" arrows="1" fold="1" page="1" pageScale="1" pageWidth="827" pageHeight="1169" math="0" shadow="0">
      <root>
        <mxCell id="WIyWlLk6GJQsqaUBKTNV-0" />
        <mxCell id="WIyWlLk6GJQsqaUBKTNV-1" parent="WIyWlLk6GJQsqaUBKTNV-0" />
        <mxCell id="2iLhMV6jdJbxQqCT192k-0" value="Start" style="ellipse;whiteSpace=wrap;html=1;" parent="WIyWlLk6GJQsqaUBKTNV-1" vertex="1">
          <mxGeometry x="330" y="10" width="120" height="50" as="geometry" />
        </mxCell>
        <mxCell id="ynhjxwPNjTfEOPQKS7Ig-1" value="2" style="edgeStyle=orthogonalEdgeStyle;rounded=0;orthogonalLoop=1;jettySize=auto;html=1;" parent="WIyWlLk6GJQsqaUBKTNV-1" source="2iLhMV6jdJbxQqCT192k-1" target="2iLhMV6jdJbxQqCT192k-5" edge="1">
          <mxGeometry relative="1" as="geometry" />
        </mxCell>
        <mxCell id="2iLhMV6jdJbxQqCT192k-1" value="input credentials" style="shape=parallelogram;perimeter=parallelogramPerimeter;whiteSpace=wrap;html=1;fixedSize=1;" parent="WIyWlLk6GJQsqaUBKTNV-1" vertex="1">
          <mxGeometry x="330" y="100" width="120" height="30" as="geometry" />
        </mxCell>
        <mxCell id="2iLhMV6jdJbxQqCT192k-3" value="1" style="edgeStyle=orthogonalEdgeStyle;rounded=0;orthogonalLoop=1;jettySize=auto;html=1;exitX=0.5;exitY=1;exitDx=0;exitDy=0;" parent="WIyWlLk6GJQsqaUBKTNV-1" source="2iLhMV6jdJbxQqCT192k-0" target="2iLhMV6jdJbxQqCT192k-1" edge="1">
          <mxGeometry relative="1" as="geometry" />
        </mxCell>
        <mxCell id="2iLhMV6jdJbxQqCT192k-7" value="3" style="edgeStyle=orthogonalEdgeStyle;rounded=0;orthogonalLoop=1;jettySize=auto;html=1;entryX=0;entryY=0.5;entryDx=0;entryDy=0;" parent="WIyWlLk6GJQsqaUBKTNV-1" source="2iLhMV6jdJbxQqCT192k-5" target="2iLhMV6jdJbxQqCT192k-1" edge="1">
          <mxGeometry relative="1" as="geometry">
            <Array as="points">
              <mxPoint x="300" y="255" />
              <mxPoint x="300" y="110" />
              <mxPoint x="340" y="110" />
            </Array>
          </mxGeometry>
        </mxCell>
        <mxCell id="2iLhMV6jdJbxQqCT192k-11" value="4" style="edgeStyle=orthogonalEdgeStyle;rounded=0;orthogonalLoop=1;jettySize=auto;html=1;" parent="WIyWlLk6GJQsqaUBKTNV-1" source="2iLhMV6jdJbxQqCT192k-5" target="2iLhMV6jdJbxQqCT192k-10" edge="1">
          <mxGeometry relative="1" as="geometry" />
        </mxCell>
        <mxCell id="2iLhMV6jdJbxQqCT192k-5" value="valid credentials" style="rhombus;whiteSpace=wrap;html=1;" parent="WIyWlLk6GJQsqaUBKTNV-1" vertex="1">
          <mxGeometry x="350" y="215" width="80" height="80" as="geometry" />
        </mxCell>
        <mxCell id="2iLhMV6jdJbxQqCT192k-8" value="no" style="text;html=1;align=center;verticalAlign=middle;resizable=0;points=[];autosize=1;strokeColor=none;fillColor=none;" parent="WIyWlLk6GJQsqaUBKTNV-1" vertex="1">
          <mxGeometry x="320" y="225" width="40" height="30" as="geometry" />
        </mxCell>
        <mxCell id="2iLhMV6jdJbxQqCT192k-13" value="" style="edgeStyle=orthogonalEdgeStyle;rounded=0;orthogonalLoop=1;jettySize=auto;html=1;" parent="WIyWlLk6GJQsqaUBKTNV-1" source="2iLhMV6jdJbxQqCT192k-10" target="2iLhMV6jdJbxQqCT192k-12" edge="1">
          <mxGeometry relative="1" as="geometry" />
        </mxCell>
        <mxCell id="2iLhMV6jdJbxQqCT192k-18" value="" style="edgeStyle=orthogonalEdgeStyle;rounded=0;orthogonalLoop=1;jettySize=auto;html=1;" parent="WIyWlLk6GJQsqaUBKTNV-1" source="2iLhMV6jdJbxQqCT192k-10" target="2iLhMV6jdJbxQqCT192k-17" edge="1">
          <mxGeometry relative="1" as="geometry" />
        </mxCell>
        <mxCell id="ynhjxwPNjTfEOPQKS7Ig-152" value="7" style="edgeLabel;html=1;align=center;verticalAlign=middle;resizable=0;points=[];" parent="2iLhMV6jdJbxQqCT192k-18" vertex="1" connectable="0">
          <mxGeometry x="0.7066" y="1" relative="1" as="geometry">
            <mxPoint as="offset" />
          </mxGeometry>
        </mxCell>
        <mxCell id="2iLhMV6jdJbxQqCT192k-83" value="" style="edgeStyle=orthogonalEdgeStyle;rounded=0;orthogonalLoop=1;jettySize=auto;html=1;entryX=0.5;entryY=0;entryDx=0;entryDy=0;" parent="WIyWlLk6GJQsqaUBKTNV-1" source="2iLhMV6jdJbxQqCT192k-10" target="2iLhMV6jdJbxQqCT192k-82" edge="1">
          <mxGeometry relative="1" as="geometry" />
        </mxCell>
        <mxCell id="ynhjxwPNjTfEOPQKS7Ig-154" value="30" style="edgeLabel;html=1;align=center;verticalAlign=middle;resizable=0;points=[];" parent="2iLhMV6jdJbxQqCT192k-83" vertex="1" connectable="0">
          <mxGeometry x="0.8756" relative="1" as="geometry">
            <mxPoint y="1" as="offset" />
          </mxGeometry>
        </mxCell>
        <mxCell id="ynhjxwPNjTfEOPQKS7Ig-13" value="" style="edgeStyle=orthogonalEdgeStyle;rounded=0;orthogonalLoop=1;jettySize=auto;html=1;" parent="WIyWlLk6GJQsqaUBKTNV-1" source="2iLhMV6jdJbxQqCT192k-10" target="ynhjxwPNjTfEOPQKS7Ig-12" edge="1">
          <mxGeometry relative="1" as="geometry" />
        </mxCell>
        <mxCell id="ynhjxwPNjTfEOPQKS7Ig-185" value="38" style="edgeLabel;html=1;align=center;verticalAlign=middle;resizable=0;points=[];" parent="ynhjxwPNjTfEOPQKS7Ig-13" vertex="1" connectable="0">
          <mxGeometry x="-0.3847" y="-2" relative="1" as="geometry">
            <mxPoint as="offset" />
          </mxGeometry>
        </mxCell>
        <mxCell id="ynhjxwPNjTfEOPQKS7Ig-53" style="edgeStyle=orthogonalEdgeStyle;rounded=0;orthogonalLoop=1;jettySize=auto;html=1;entryX=0.5;entryY=0;entryDx=0;entryDy=0;" parent="WIyWlLk6GJQsqaUBKTNV-1" source="2iLhMV6jdJbxQqCT192k-10" target="ynhjxwPNjTfEOPQKS7Ig-51" edge="1">
          <mxGeometry relative="1" as="geometry">
            <Array as="points">
              <mxPoint x="770" y="413" />
              <mxPoint x="770" y="460" />
              <mxPoint x="660" y="460" />
            </Array>
          </mxGeometry>
        </mxCell>
        <mxCell id="ynhjxwPNjTfEOPQKS7Ig-193" value="47" style="edgeLabel;html=1;align=center;verticalAlign=middle;resizable=0;points=[];" parent="ynhjxwPNjTfEOPQKS7Ig-53" vertex="1" connectable="0">
          <mxGeometry x="0.4291" y="2" relative="1" as="geometry">
            <mxPoint y="1" as="offset" />
          </mxGeometry>
        </mxCell>
        <mxCell id="ynhjxwPNjTfEOPQKS7Ig-77" value="" style="edgeStyle=orthogonalEdgeStyle;rounded=0;orthogonalLoop=1;jettySize=auto;html=1;entryX=0.5;entryY=0;entryDx=0;entryDy=0;" parent="WIyWlLk6GJQsqaUBKTNV-1" source="2iLhMV6jdJbxQqCT192k-10" target="ynhjxwPNjTfEOPQKS7Ig-76" edge="1">
          <mxGeometry relative="1" as="geometry">
            <Array as="points">
              <mxPoint x="960" y="413" />
            </Array>
          </mxGeometry>
        </mxCell>
        <mxCell id="ynhjxwPNjTfEOPQKS7Ig-201" value="55" style="edgeLabel;html=1;align=center;verticalAlign=middle;resizable=0;points=[];" parent="ynhjxwPNjTfEOPQKS7Ig-77" vertex="1" connectable="0">
          <mxGeometry x="0.8744" y="1" relative="1" as="geometry">
            <mxPoint y="1" as="offset" />
          </mxGeometry>
        </mxCell>
        <mxCell id="2iLhMV6jdJbxQqCT192k-10" value="Home screen" style="whiteSpace=wrap;html=1;" parent="WIyWlLk6GJQsqaUBKTNV-1" vertex="1">
          <mxGeometry x="330" y="385" width="120" height="55" as="geometry" />
        </mxCell>
        <mxCell id="2iLhMV6jdJbxQqCT192k-16" value="6" style="edgeStyle=orthogonalEdgeStyle;rounded=0;orthogonalLoop=1;jettySize=auto;html=1;" parent="WIyWlLk6GJQsqaUBKTNV-1" source="2iLhMV6jdJbxQqCT192k-12" target="2iLhMV6jdJbxQqCT192k-15" edge="1">
          <mxGeometry relative="1" as="geometry">
            <Array as="points">
              <mxPoint x="-390" y="570" />
              <mxPoint x="-390" y="570" />
            </Array>
          </mxGeometry>
        </mxCell>
        <mxCell id="2iLhMV6jdJbxQqCT192k-12" value="dashboard" style="whiteSpace=wrap;html=1;" parent="WIyWlLk6GJQsqaUBKTNV-1" vertex="1">
          <mxGeometry x="-450" y="480" width="120" height="60" as="geometry" />
        </mxCell>
        <mxCell id="2iLhMV6jdJbxQqCT192k-15" value="display Attendance details and leave details" style="whiteSpace=wrap;html=1;" parent="WIyWlLk6GJQsqaUBKTNV-1" vertex="1">
          <mxGeometry x="-450" y="620" width="120" height="60" as="geometry" />
        </mxCell>
        <mxCell id="2iLhMV6jdJbxQqCT192k-20" value="8" style="edgeStyle=orthogonalEdgeStyle;rounded=0;orthogonalLoop=1;jettySize=auto;html=1;" parent="WIyWlLk6GJQsqaUBKTNV-1" source="2iLhMV6jdJbxQqCT192k-17" target="2iLhMV6jdJbxQqCT192k-19" edge="1">
          <mxGeometry relative="1" as="geometry" />
        </mxCell>
        <mxCell id="2iLhMV6jdJbxQqCT192k-23" value="" style="edgeStyle=orthogonalEdgeStyle;rounded=0;orthogonalLoop=1;jettySize=auto;html=1;" parent="WIyWlLk6GJQsqaUBKTNV-1" source="2iLhMV6jdJbxQqCT192k-17" target="2iLhMV6jdJbxQqCT192k-22" edge="1">
          <mxGeometry x="0.1765" relative="1" as="geometry">
            <mxPoint as="offset" />
          </mxGeometry>
        </mxCell>
        <mxCell id="ynhjxwPNjTfEOPQKS7Ig-178" value="28" style="edgeLabel;html=1;align=center;verticalAlign=middle;resizable=0;points=[];" parent="2iLhMV6jdJbxQqCT192k-23" vertex="1" connectable="0">
          <mxGeometry x="0.5412" y="-3" relative="1" as="geometry">
            <mxPoint as="offset" />
          </mxGeometry>
        </mxCell>
        <mxCell id="2iLhMV6jdJbxQqCT192k-17" value="Leaves" style="whiteSpace=wrap;html=1;" parent="WIyWlLk6GJQsqaUBKTNV-1" vertex="1">
          <mxGeometry x="-250" y="540" width="120" height="60" as="geometry" />
        </mxCell>
        <mxCell id="2iLhMV6jdJbxQqCT192k-26" value="" style="edgeStyle=orthogonalEdgeStyle;rounded=0;orthogonalLoop=1;jettySize=auto;html=1;" parent="WIyWlLk6GJQsqaUBKTNV-1" source="2iLhMV6jdJbxQqCT192k-19" target="2iLhMV6jdJbxQqCT192k-25" edge="1">
          <mxGeometry relative="1" as="geometry">
            <Array as="points">
              <mxPoint x="-280" y="770" />
              <mxPoint x="-330" y="770" />
            </Array>
          </mxGeometry>
        </mxCell>
        <mxCell id="ynhjxwPNjTfEOPQKS7Ig-159" value="22" style="edgeLabel;html=1;align=center;verticalAlign=middle;resizable=0;points=[];" parent="2iLhMV6jdJbxQqCT192k-26" vertex="1" connectable="0">
          <mxGeometry x="0.2545" y="3" relative="1" as="geometry">
            <mxPoint x="-3" y="11" as="offset" />
          </mxGeometry>
        </mxCell>
        <mxCell id="2iLhMV6jdJbxQqCT192k-31" value="" style="edgeStyle=orthogonalEdgeStyle;rounded=0;orthogonalLoop=1;jettySize=auto;html=1;" parent="WIyWlLk6GJQsqaUBKTNV-1" source="2iLhMV6jdJbxQqCT192k-19" target="2iLhMV6jdJbxQqCT192k-30" edge="1">
          <mxGeometry relative="1" as="geometry">
            <Array as="points">
              <mxPoint x="-280" y="770" />
              <mxPoint x="-480" y="770" />
            </Array>
          </mxGeometry>
        </mxCell>
        <mxCell id="ynhjxwPNjTfEOPQKS7Ig-158" value="18" style="edgeLabel;html=1;align=center;verticalAlign=middle;resizable=0;points=[];" parent="2iLhMV6jdJbxQqCT192k-31" vertex="1" connectable="0">
          <mxGeometry x="0.7231" relative="1" as="geometry">
            <mxPoint as="offset" />
          </mxGeometry>
        </mxCell>
        <mxCell id="2iLhMV6jdJbxQqCT192k-37" value="" style="edgeStyle=orthogonalEdgeStyle;rounded=0;orthogonalLoop=1;jettySize=auto;html=1;" parent="WIyWlLk6GJQsqaUBKTNV-1" source="2iLhMV6jdJbxQqCT192k-19" target="2iLhMV6jdJbxQqCT192k-36" edge="1">
          <mxGeometry relative="1" as="geometry">
            <Array as="points">
              <mxPoint x="-280" y="770" />
              <mxPoint x="-190" y="770" />
            </Array>
          </mxGeometry>
        </mxCell>
        <mxCell id="ynhjxwPNjTfEOPQKS7Ig-177" value="26" style="edgeLabel;html=1;align=center;verticalAlign=middle;resizable=0;points=[];" parent="2iLhMV6jdJbxQqCT192k-37" vertex="1" connectable="0">
          <mxGeometry x="0.4667" relative="1" as="geometry">
            <mxPoint as="offset" />
          </mxGeometry>
        </mxCell>
        <mxCell id="2iLhMV6jdJbxQqCT192k-39" value="" style="edgeStyle=orthogonalEdgeStyle;rounded=0;orthogonalLoop=1;jettySize=auto;html=1;" parent="WIyWlLk6GJQsqaUBKTNV-1" edge="1">
          <mxGeometry relative="1" as="geometry">
            <Array as="points">
              <mxPoint x="-280" y="760" />
              <mxPoint x="-280" y="770" />
              <mxPoint x="-810" y="770" />
            </Array>
            <mxPoint x="-290" y="760" as="sourcePoint" />
            <mxPoint x="-810" y="820" as="targetPoint" />
          </mxGeometry>
        </mxCell>
        <mxCell id="ynhjxwPNjTfEOPQKS7Ig-156" value="9" style="edgeLabel;html=1;align=center;verticalAlign=middle;resizable=0;points=[];" parent="2iLhMV6jdJbxQqCT192k-39" vertex="1" connectable="0">
          <mxGeometry x="0.869" y="-1" relative="1" as="geometry">
            <mxPoint as="offset" />
          </mxGeometry>
        </mxCell>
        <mxCell id="ynhjxwPNjTfEOPQKS7Ig-170" style="edgeStyle=orthogonalEdgeStyle;rounded=0;orthogonalLoop=1;jettySize=auto;html=1;entryX=0.45;entryY=0.017;entryDx=0;entryDy=0;entryPerimeter=0;" parent="WIyWlLk6GJQsqaUBKTNV-1" source="2iLhMV6jdJbxQqCT192k-19" target="2iLhMV6jdJbxQqCT192k-32" edge="1">
          <mxGeometry relative="1" as="geometry">
            <Array as="points">
              <mxPoint x="-280" y="770" />
              <mxPoint x="-656" y="770" />
            </Array>
          </mxGeometry>
        </mxCell>
        <mxCell id="ynhjxwPNjTfEOPQKS7Ig-172" value="13" style="edgeLabel;html=1;align=center;verticalAlign=middle;resizable=0;points=[];" parent="ynhjxwPNjTfEOPQKS7Ig-170" vertex="1" connectable="0">
          <mxGeometry x="0.8123" y="-2" relative="1" as="geometry">
            <mxPoint as="offset" />
          </mxGeometry>
        </mxCell>
        <mxCell id="2iLhMV6jdJbxQqCT192k-19" value="my leaves" style="whiteSpace=wrap;html=1;" parent="WIyWlLk6GJQsqaUBKTNV-1" vertex="1">
          <mxGeometry x="-340" y="700" width="120" height="60" as="geometry" />
        </mxCell>
        <mxCell id="2iLhMV6jdJbxQqCT192k-71" value="" style="edgeStyle=orthogonalEdgeStyle;rounded=0;orthogonalLoop=1;jettySize=auto;html=1;" parent="WIyWlLk6GJQsqaUBKTNV-1" source="2iLhMV6jdJbxQqCT192k-22" target="2iLhMV6jdJbxQqCT192k-70" edge="1">
          <mxGeometry relative="1" as="geometry" />
        </mxCell>
        <mxCell id="ynhjxwPNjTfEOPQKS7Ig-179" value="29" style="edgeLabel;html=1;align=center;verticalAlign=middle;resizable=0;points=[];" parent="2iLhMV6jdJbxQqCT192k-71" vertex="1" connectable="0">
          <mxGeometry x="-0.3467" y="-1" relative="1" as="geometry">
            <mxPoint as="offset" />
          </mxGeometry>
        </mxCell>
        <mxCell id="2iLhMV6jdJbxQqCT192k-22" value="leaves rule" style="whiteSpace=wrap;html=1;" parent="WIyWlLk6GJQsqaUBKTNV-1" vertex="1">
          <mxGeometry x="-180" y="700" width="120" height="60" as="geometry" />
        </mxCell>
        <mxCell id="2iLhMV6jdJbxQqCT192k-47" value="23" style="edgeStyle=orthogonalEdgeStyle;rounded=0;orthogonalLoop=1;jettySize=auto;html=1;" parent="WIyWlLk6GJQsqaUBKTNV-1" source="2iLhMV6jdJbxQqCT192k-25" target="2iLhMV6jdJbxQqCT192k-46" edge="1">
          <mxGeometry relative="1" as="geometry" />
        </mxCell>
        <mxCell id="2iLhMV6jdJbxQqCT192k-25" value="HR Acknowledgement" style="whiteSpace=wrap;html=1;" parent="WIyWlLk6GJQsqaUBKTNV-1" vertex="1">
          <mxGeometry x="-390" y="820" width="120" height="60" as="geometry" />
        </mxCell>
        <mxCell id="2iLhMV6jdJbxQqCT192k-45" value="19" style="edgeStyle=orthogonalEdgeStyle;rounded=0;orthogonalLoop=1;jettySize=auto;html=1;" parent="WIyWlLk6GJQsqaUBKTNV-1" source="2iLhMV6jdJbxQqCT192k-30" target="2iLhMV6jdJbxQqCT192k-44" edge="1">
          <mxGeometry relative="1" as="geometry" />
        </mxCell>
        <mxCell id="2iLhMV6jdJbxQqCT192k-30" value="Rejected" style="whiteSpace=wrap;html=1;" parent="WIyWlLk6GJQsqaUBKTNV-1" vertex="1">
          <mxGeometry x="-540" y="820" width="120" height="60" as="geometry" />
        </mxCell>
        <mxCell id="2iLhMV6jdJbxQqCT192k-43" value="" style="edgeStyle=orthogonalEdgeStyle;rounded=0;orthogonalLoop=1;jettySize=auto;html=1;" parent="WIyWlLk6GJQsqaUBKTNV-1" source="2iLhMV6jdJbxQqCT192k-32" target="2iLhMV6jdJbxQqCT192k-42" edge="1">
          <mxGeometry relative="1" as="geometry" />
        </mxCell>
        <mxCell id="ynhjxwPNjTfEOPQKS7Ig-164" value="14" style="edgeLabel;html=1;align=center;verticalAlign=middle;resizable=0;points=[];" parent="2iLhMV6jdJbxQqCT192k-43" vertex="1" connectable="0">
          <mxGeometry x="-0.3" y="1" relative="1" as="geometry">
            <mxPoint as="offset" />
          </mxGeometry>
        </mxCell>
        <mxCell id="2iLhMV6jdJbxQqCT192k-32" value="Pending" style="whiteSpace=wrap;html=1;" parent="WIyWlLk6GJQsqaUBKTNV-1" vertex="1">
          <mxGeometry x="-710" y="820" width="120" height="60" as="geometry" />
        </mxCell>
        <mxCell id="2iLhMV6jdJbxQqCT192k-49" value="27" style="edgeStyle=orthogonalEdgeStyle;rounded=0;orthogonalLoop=1;jettySize=auto;html=1;" parent="WIyWlLk6GJQsqaUBKTNV-1" source="2iLhMV6jdJbxQqCT192k-36" edge="1">
          <mxGeometry relative="1" as="geometry">
            <mxPoint x="-190" y="950" as="targetPoint" />
          </mxGeometry>
        </mxCell>
        <mxCell id="2iLhMV6jdJbxQqCT192k-36" value="All" style="whiteSpace=wrap;html=1;" parent="WIyWlLk6GJQsqaUBKTNV-1" vertex="1">
          <mxGeometry x="-250" y="820" width="120" height="60" as="geometry" />
        </mxCell>
        <mxCell id="2iLhMV6jdJbxQqCT192k-41" value="10" style="edgeStyle=orthogonalEdgeStyle;rounded=0;orthogonalLoop=1;jettySize=auto;html=1;" parent="WIyWlLk6GJQsqaUBKTNV-1" source="2iLhMV6jdJbxQqCT192k-38" target="2iLhMV6jdJbxQqCT192k-40" edge="1">
          <mxGeometry relative="1" as="geometry" />
        </mxCell>
        <mxCell id="2iLhMV6jdJbxQqCT192k-38" value="Accepted" style="whiteSpace=wrap;html=1;" parent="WIyWlLk6GJQsqaUBKTNV-1" vertex="1">
          <mxGeometry x="-860" y="820" width="120" height="60" as="geometry" />
        </mxCell>
        <mxCell id="2iLhMV6jdJbxQqCT192k-51" value="" style="edgeStyle=orthogonalEdgeStyle;rounded=0;orthogonalLoop=1;jettySize=auto;html=1;" parent="WIyWlLk6GJQsqaUBKTNV-1" source="2iLhMV6jdJbxQqCT192k-40" target="2iLhMV6jdJbxQqCT192k-50" edge="1">
          <mxGeometry relative="1" as="geometry" />
        </mxCell>
        <mxCell id="ynhjxwPNjTfEOPQKS7Ig-162" value="11" style="edgeLabel;html=1;align=center;verticalAlign=middle;resizable=0;points=[];" parent="2iLhMV6jdJbxQqCT192k-51" vertex="1" connectable="0">
          <mxGeometry y="2" relative="1" as="geometry">
            <mxPoint as="offset" />
          </mxGeometry>
        </mxCell>
        <mxCell id="2iLhMV6jdJbxQqCT192k-53" value="" style="edgeStyle=orthogonalEdgeStyle;rounded=0;orthogonalLoop=1;jettySize=auto;html=1;" parent="WIyWlLk6GJQsqaUBKTNV-1" source="2iLhMV6jdJbxQqCT192k-40" target="2iLhMV6jdJbxQqCT192k-52" edge="1">
          <mxGeometry relative="1" as="geometry" />
        </mxCell>
        <mxCell id="ynhjxwPNjTfEOPQKS7Ig-163" value="12" style="edgeLabel;html=1;align=center;verticalAlign=middle;resizable=0;points=[];" parent="2iLhMV6jdJbxQqCT192k-53" vertex="1" connectable="0">
          <mxGeometry x="-0.45" y="3" relative="1" as="geometry">
            <mxPoint as="offset" />
          </mxGeometry>
        </mxCell>
        <mxCell id="2iLhMV6jdJbxQqCT192k-40" value="leave accepted&amp;nbsp;" style="rhombus;whiteSpace=wrap;html=1;" parent="WIyWlLk6GJQsqaUBKTNV-1" vertex="1">
          <mxGeometry x="-840" y="950" width="80" height="80" as="geometry" />
        </mxCell>
        <mxCell id="2iLhMV6jdJbxQqCT192k-55" value="" style="edgeStyle=orthogonalEdgeStyle;rounded=0;orthogonalLoop=1;jettySize=auto;html=1;" parent="WIyWlLk6GJQsqaUBKTNV-1" source="2iLhMV6jdJbxQqCT192k-42" target="2iLhMV6jdJbxQqCT192k-54" edge="1">
          <mxGeometry relative="1" as="geometry">
            <Array as="points">
              <mxPoint x="-680" y="1140" />
              <mxPoint x="-750" y="1140" />
            </Array>
          </mxGeometry>
        </mxCell>
        <mxCell id="ynhjxwPNjTfEOPQKS7Ig-166" value="16" style="edgeLabel;html=1;align=center;verticalAlign=middle;resizable=0;points=[];" parent="2iLhMV6jdJbxQqCT192k-55" vertex="1" connectable="0">
          <mxGeometry x="0.5" y="4" relative="1" as="geometry">
            <mxPoint as="offset" />
          </mxGeometry>
        </mxCell>
        <mxCell id="2iLhMV6jdJbxQqCT192k-57" value="" style="edgeStyle=orthogonalEdgeStyle;rounded=0;orthogonalLoop=1;jettySize=auto;html=1;" parent="WIyWlLk6GJQsqaUBKTNV-1" source="2iLhMV6jdJbxQqCT192k-42" target="2iLhMV6jdJbxQqCT192k-56" edge="1">
          <mxGeometry relative="1" as="geometry">
            <Array as="points">
              <mxPoint x="-680" y="1140" />
              <mxPoint x="-630" y="1140" />
            </Array>
          </mxGeometry>
        </mxCell>
        <mxCell id="ynhjxwPNjTfEOPQKS7Ig-165" value="15" style="edgeLabel;html=1;align=center;verticalAlign=middle;resizable=0;points=[];" parent="2iLhMV6jdJbxQqCT192k-57" vertex="1" connectable="0">
          <mxGeometry x="-0.7615" y="-1" relative="1" as="geometry">
            <mxPoint as="offset" />
          </mxGeometry>
        </mxCell>
        <mxCell id="ynhjxwPNjTfEOPQKS7Ig-167" value="17" style="edgeLabel;html=1;align=center;verticalAlign=middle;resizable=0;points=[];" parent="2iLhMV6jdJbxQqCT192k-57" vertex="1" connectable="0">
          <mxGeometry x="0.4" y="-3" relative="1" as="geometry">
            <mxPoint as="offset" />
          </mxGeometry>
        </mxCell>
        <mxCell id="2iLhMV6jdJbxQqCT192k-42" value="leave is still on pending" style="rhombus;whiteSpace=wrap;html=1;" parent="WIyWlLk6GJQsqaUBKTNV-1" vertex="1">
          <mxGeometry x="-720" y="950" width="80" height="80" as="geometry" />
        </mxCell>
        <mxCell id="2iLhMV6jdJbxQqCT192k-59" value="" style="edgeStyle=orthogonalEdgeStyle;rounded=0;orthogonalLoop=1;jettySize=auto;html=1;" parent="WIyWlLk6GJQsqaUBKTNV-1" source="2iLhMV6jdJbxQqCT192k-44" target="2iLhMV6jdJbxQqCT192k-58" edge="1">
          <mxGeometry relative="1" as="geometry" />
        </mxCell>
        <mxCell id="ynhjxwPNjTfEOPQKS7Ig-173" value="20" style="edgeLabel;html=1;align=center;verticalAlign=middle;resizable=0;points=[];" parent="2iLhMV6jdJbxQqCT192k-59" vertex="1" connectable="0">
          <mxGeometry x="0.4167" y="-1" relative="1" as="geometry">
            <mxPoint as="offset" />
          </mxGeometry>
        </mxCell>
        <mxCell id="2iLhMV6jdJbxQqCT192k-61" value="" style="edgeStyle=orthogonalEdgeStyle;rounded=0;orthogonalLoop=1;jettySize=auto;html=1;" parent="WIyWlLk6GJQsqaUBKTNV-1" source="2iLhMV6jdJbxQqCT192k-44" target="2iLhMV6jdJbxQqCT192k-60" edge="1">
          <mxGeometry relative="1" as="geometry" />
        </mxCell>
        <mxCell id="ynhjxwPNjTfEOPQKS7Ig-174" value="21" style="edgeLabel;html=1;align=center;verticalAlign=middle;resizable=0;points=[];" parent="2iLhMV6jdJbxQqCT192k-61" vertex="1" connectable="0">
          <mxGeometry x="-0.4444" relative="1" as="geometry">
            <mxPoint x="5" as="offset" />
          </mxGeometry>
        </mxCell>
        <mxCell id="2iLhMV6jdJbxQqCT192k-44" value="leave rejected&amp;nbsp;" style="rhombus;whiteSpace=wrap;html=1;" parent="WIyWlLk6GJQsqaUBKTNV-1" vertex="1">
          <mxGeometry x="-520" y="950" width="80" height="80" as="geometry" />
        </mxCell>
        <mxCell id="2iLhMV6jdJbxQqCT192k-63" value="" style="edgeStyle=orthogonalEdgeStyle;rounded=0;orthogonalLoop=1;jettySize=auto;html=1;entryX=0.5;entryY=0;entryDx=0;entryDy=0;" parent="WIyWlLk6GJQsqaUBKTNV-1" source="2iLhMV6jdJbxQqCT192k-46" target="2iLhMV6jdJbxQqCT192k-62" edge="1">
          <mxGeometry relative="1" as="geometry">
            <mxPoint x="-350" y="1199" as="targetPoint" />
            <Array as="points">
              <mxPoint x="-330" y="1160" />
              <mxPoint x="-450" y="1160" />
            </Array>
          </mxGeometry>
        </mxCell>
        <mxCell id="2iLhMV6jdJbxQqCT192k-65" value="24" style="edgeStyle=orthogonalEdgeStyle;rounded=0;orthogonalLoop=1;jettySize=auto;html=1;" parent="WIyWlLk6GJQsqaUBKTNV-1" source="2iLhMV6jdJbxQqCT192k-46" target="2iLhMV6jdJbxQqCT192k-64" edge="1">
          <mxGeometry x="0.3" y="-60" relative="1" as="geometry">
            <Array as="points">
              <mxPoint x="-330" y="1160" />
              <mxPoint x="-260" y="1160" />
            </Array>
            <mxPoint x="-60" y="-60" as="offset" />
          </mxGeometry>
        </mxCell>
        <mxCell id="ynhjxwPNjTfEOPQKS7Ig-175" value="25" style="edgeLabel;html=1;align=center;verticalAlign=middle;resizable=0;points=[];" parent="2iLhMV6jdJbxQqCT192k-65" vertex="1" connectable="0">
          <mxGeometry x="0.35" relative="1" as="geometry">
            <mxPoint x="25" as="offset" />
          </mxGeometry>
        </mxCell>
        <mxCell id="2iLhMV6jdJbxQqCT192k-46" value="leave acknowledged by HR" style="rhombus;whiteSpace=wrap;html=1;" parent="WIyWlLk6GJQsqaUBKTNV-1" vertex="1">
          <mxGeometry x="-370" y="950" width="80" height="80" as="geometry" />
        </mxCell>
        <mxCell id="2iLhMV6jdJbxQqCT192k-50" value="display details regarding accepted leave" style="whiteSpace=wrap;html=1;" parent="WIyWlLk6GJQsqaUBKTNV-1" vertex="1">
          <mxGeometry x="-1000" y="1060" width="120" height="60" as="geometry" />
        </mxCell>
        <mxCell id="2iLhMV6jdJbxQqCT192k-52" value="display no record are found" style="whiteSpace=wrap;html=1;" parent="WIyWlLk6GJQsqaUBKTNV-1" vertex="1">
          <mxGeometry x="-910" y="1140" width="120" height="60" as="geometry" />
        </mxCell>
        <mxCell id="2iLhMV6jdJbxQqCT192k-54" value="display details regarding leave that is still on pending" style="whiteSpace=wrap;html=1;" parent="WIyWlLk6GJQsqaUBKTNV-1" vertex="1">
          <mxGeometry x="-820" y="1240" width="120" height="60" as="geometry" />
        </mxCell>
        <mxCell id="2iLhMV6jdJbxQqCT192k-56" value="display no records are found" style="whiteSpace=wrap;html=1;" parent="WIyWlLk6GJQsqaUBKTNV-1" vertex="1">
          <mxGeometry x="-690" y="1240" width="120" height="60" as="geometry" />
        </mxCell>
        <mxCell id="2iLhMV6jdJbxQqCT192k-58" value="display details regarding rejected leave" style="whiteSpace=wrap;html=1;" parent="WIyWlLk6GJQsqaUBKTNV-1" vertex="1">
          <mxGeometry x="-620" y="1070" width="120" height="60" as="geometry" />
        </mxCell>
        <mxCell id="2iLhMV6jdJbxQqCT192k-60" value="display no results found" style="whiteSpace=wrap;html=1;" parent="WIyWlLk6GJQsqaUBKTNV-1" vertex="1">
          <mxGeometry x="-490" y="1070" width="120" height="60" as="geometry" />
        </mxCell>
        <mxCell id="2iLhMV6jdJbxQqCT192k-62" value="display leave details" style="whiteSpace=wrap;html=1;" parent="WIyWlLk6GJQsqaUBKTNV-1" vertex="1">
          <mxGeometry x="-510" y="1190" width="120" height="60" as="geometry" />
        </mxCell>
        <mxCell id="2iLhMV6jdJbxQqCT192k-64" value="no records are found" style="whiteSpace=wrap;html=1;" parent="WIyWlLk6GJQsqaUBKTNV-1" vertex="1">
          <mxGeometry x="-310" y="1180" width="120" height="60" as="geometry" />
        </mxCell>
        <mxCell id="2iLhMV6jdJbxQqCT192k-66" value="display details of leave and its status" style="rounded=0;whiteSpace=wrap;html=1;" parent="WIyWlLk6GJQsqaUBKTNV-1" vertex="1">
          <mxGeometry x="-250" y="950" width="120" height="60" as="geometry" />
        </mxCell>
        <mxCell id="2iLhMV6jdJbxQqCT192k-70" value="display rules regarding leaves" style="whiteSpace=wrap;html=1;" parent="WIyWlLk6GJQsqaUBKTNV-1" vertex="1">
          <mxGeometry x="-80" y="810" width="120" height="60" as="geometry" />
        </mxCell>
        <mxCell id="2iLhMV6jdJbxQqCT192k-72" value="yes" style="text;html=1;align=center;verticalAlign=middle;resizable=0;points=[];autosize=1;strokeColor=none;fillColor=none;" parent="WIyWlLk6GJQsqaUBKTNV-1" vertex="1">
          <mxGeometry x="-910" y="965" width="40" height="30" as="geometry" />
        </mxCell>
        <mxCell id="2iLhMV6jdJbxQqCT192k-73" value="no" style="text;html=1;align=center;verticalAlign=middle;resizable=0;points=[];autosize=1;strokeColor=none;fillColor=none;rotation=0;" parent="WIyWlLk6GJQsqaUBKTNV-1" vertex="1">
          <mxGeometry x="-830" y="1040" width="40" height="30" as="geometry" />
        </mxCell>
        <mxCell id="2iLhMV6jdJbxQqCT192k-74" value="yes" style="text;html=1;align=center;verticalAlign=middle;resizable=0;points=[];autosize=1;strokeColor=none;fillColor=none;" parent="WIyWlLk6GJQsqaUBKTNV-1" vertex="1">
          <mxGeometry x="-750" y="1115" width="40" height="30" as="geometry" />
        </mxCell>
        <mxCell id="2iLhMV6jdJbxQqCT192k-76" value="no" style="text;html=1;align=center;verticalAlign=middle;resizable=0;points=[];autosize=1;strokeColor=none;fillColor=none;" parent="WIyWlLk6GJQsqaUBKTNV-1" vertex="1">
          <mxGeometry x="-670" y="1115" width="40" height="30" as="geometry" />
        </mxCell>
        <mxCell id="2iLhMV6jdJbxQqCT192k-77" value="yes" style="text;html=1;align=center;verticalAlign=middle;resizable=0;points=[];autosize=1;strokeColor=none;fillColor=none;" parent="WIyWlLk6GJQsqaUBKTNV-1" vertex="1">
          <mxGeometry x="-370" y="1135" width="40" height="30" as="geometry" />
        </mxCell>
        <mxCell id="2iLhMV6jdJbxQqCT192k-78" value="yes" style="text;html=1;align=center;verticalAlign=middle;resizable=0;points=[];autosize=1;strokeColor=none;fillColor=none;" parent="WIyWlLk6GJQsqaUBKTNV-1" vertex="1">
          <mxGeometry x="-530" y="1025" width="40" height="30" as="geometry" />
        </mxCell>
        <mxCell id="2iLhMV6jdJbxQqCT192k-79" value="no" style="text;html=1;align=center;verticalAlign=middle;resizable=0;points=[];autosize=1;strokeColor=none;fillColor=none;" parent="WIyWlLk6GJQsqaUBKTNV-1" vertex="1">
          <mxGeometry x="-480" y="1015" width="40" height="30" as="geometry" />
        </mxCell>
        <mxCell id="2iLhMV6jdJbxQqCT192k-80" value="no" style="text;html=1;align=center;verticalAlign=middle;resizable=0;points=[];autosize=1;strokeColor=none;fillColor=none;" parent="WIyWlLk6GJQsqaUBKTNV-1" vertex="1">
          <mxGeometry x="-330" y="1130" width="40" height="30" as="geometry" />
        </mxCell>
        <mxCell id="sIcRhkEwSik-rume-xdH-1" value="31" style="edgeStyle=orthogonalEdgeStyle;rounded=0;orthogonalLoop=1;jettySize=auto;html=1;" parent="WIyWlLk6GJQsqaUBKTNV-1" source="2iLhMV6jdJbxQqCT192k-82" target="sIcRhkEwSik-rume-xdH-0" edge="1">
          <mxGeometry relative="1" as="geometry" />
        </mxCell>
        <mxCell id="2iLhMV6jdJbxQqCT192k-82" value="Holidays" style="whiteSpace=wrap;html=1;" parent="WIyWlLk6GJQsqaUBKTNV-1" vertex="1">
          <mxGeometry x="-60" y="492.5" width="120" height="60" as="geometry" />
        </mxCell>
        <mxCell id="sIcRhkEwSik-rume-xdH-3" value="" style="edgeStyle=orthogonalEdgeStyle;rounded=0;orthogonalLoop=1;jettySize=auto;html=1;entryX=0;entryY=0.5;entryDx=0;entryDy=0;exitX=1;exitY=0.5;exitDx=0;exitDy=0;" parent="WIyWlLk6GJQsqaUBKTNV-1" source="sIcRhkEwSik-rume-xdH-0" target="sIcRhkEwSik-rume-xdH-2" edge="1">
          <mxGeometry relative="1" as="geometry">
            <mxPoint x="180" y="560" as="targetPoint" />
            <Array as="points">
              <mxPoint x="80" y="640" />
              <mxPoint x="80" y="640" />
            </Array>
          </mxGeometry>
        </mxCell>
        <mxCell id="ynhjxwPNjTfEOPQKS7Ig-183" value="36" style="edgeLabel;html=1;align=center;verticalAlign=middle;resizable=0;points=[];" parent="sIcRhkEwSik-rume-xdH-3" vertex="1" connectable="0">
          <mxGeometry x="-0.3364" y="-1" relative="1" as="geometry">
            <mxPoint as="offset" />
          </mxGeometry>
        </mxCell>
        <mxCell id="ynhjxwPNjTfEOPQKS7Ig-47" style="edgeStyle=orthogonalEdgeStyle;rounded=0;orthogonalLoop=1;jettySize=auto;html=1;entryX=0.5;entryY=0;entryDx=0;entryDy=0;startArrow=none;" parent="WIyWlLk6GJQsqaUBKTNV-1" source="sIcRhkEwSik-rume-xdH-7" target="ynhjxwPNjTfEOPQKS7Ig-4" edge="1">
          <mxGeometry relative="1" as="geometry">
            <Array as="points">
              <mxPoint y="700" />
              <mxPoint x="115" y="700" />
            </Array>
          </mxGeometry>
        </mxCell>
        <mxCell id="sIcRhkEwSik-rume-xdH-0" value="holiday&amp;nbsp; details" style="rhombus;whiteSpace=wrap;html=1;" parent="WIyWlLk6GJQsqaUBKTNV-1" vertex="1">
          <mxGeometry x="-40" y="600" width="80" height="80" as="geometry" />
        </mxCell>
        <mxCell id="sIcRhkEwSik-rume-xdH-9" value="" style="edgeStyle=orthogonalEdgeStyle;rounded=0;orthogonalLoop=1;jettySize=auto;html=1;" parent="WIyWlLk6GJQsqaUBKTNV-1" source="sIcRhkEwSik-rume-xdH-2" target="sIcRhkEwSik-rume-xdH-8" edge="1">
          <mxGeometry relative="1" as="geometry" />
        </mxCell>
        <mxCell id="ynhjxwPNjTfEOPQKS7Ig-184" value="37" style="edgeLabel;html=1;align=center;verticalAlign=middle;resizable=0;points=[];" parent="sIcRhkEwSik-rume-xdH-9" vertex="1" connectable="0">
          <mxGeometry x="-0.375" relative="1" as="geometry">
            <mxPoint as="offset" />
          </mxGeometry>
        </mxCell>
        <mxCell id="sIcRhkEwSik-rume-xdH-2" value="select number of entries to display public holidays&amp;nbsp;" style="whiteSpace=wrap;html=1;" parent="WIyWlLk6GJQsqaUBKTNV-1" vertex="1">
          <mxGeometry x="110" y="610" width="140" height="60" as="geometry" />
        </mxCell>
        <mxCell id="sIcRhkEwSik-rume-xdH-6" value="by entries" style="text;html=1;align=center;verticalAlign=middle;resizable=0;points=[];autosize=1;strokeColor=none;fillColor=none;" parent="WIyWlLk6GJQsqaUBKTNV-1" vertex="1">
          <mxGeometry x="30" y="610" width="80" height="30" as="geometry" />
        </mxCell>
        <mxCell id="sIcRhkEwSik-rume-xdH-8" value="display the public holidays" style="whiteSpace=wrap;html=1;" parent="WIyWlLk6GJQsqaUBKTNV-1" vertex="1">
          <mxGeometry x="300" y="580" width="120" height="60" as="geometry" />
        </mxCell>
        <mxCell id="ynhjxwPNjTfEOPQKS7Ig-6" value="33" style="edgeStyle=orthogonalEdgeStyle;rounded=0;orthogonalLoop=1;jettySize=auto;html=1;" parent="WIyWlLk6GJQsqaUBKTNV-1" source="ynhjxwPNjTfEOPQKS7Ig-4" target="ynhjxwPNjTfEOPQKS7Ig-5" edge="1">
          <mxGeometry relative="1" as="geometry" />
        </mxCell>
        <mxCell id="ynhjxwPNjTfEOPQKS7Ig-4" value="input search details/terms" style="shape=parallelogram;perimeter=parallelogramPerimeter;whiteSpace=wrap;html=1;fixedSize=1;" parent="WIyWlLk6GJQsqaUBKTNV-1" vertex="1">
          <mxGeometry x="30" y="730" width="170" height="30" as="geometry" />
        </mxCell>
        <mxCell id="ynhjxwPNjTfEOPQKS7Ig-8" value="" style="edgeStyle=orthogonalEdgeStyle;rounded=0;orthogonalLoop=1;jettySize=auto;html=1;" parent="WIyWlLk6GJQsqaUBKTNV-1" source="ynhjxwPNjTfEOPQKS7Ig-5" target="ynhjxwPNjTfEOPQKS7Ig-7" edge="1">
          <mxGeometry relative="1" as="geometry" />
        </mxCell>
        <mxCell id="ynhjxwPNjTfEOPQKS7Ig-181" value="34" style="edgeLabel;html=1;align=center;verticalAlign=middle;resizable=0;points=[];" parent="ynhjxwPNjTfEOPQKS7Ig-8" vertex="1" connectable="0">
          <mxGeometry x="0.3714" y="1" relative="1" as="geometry">
            <mxPoint as="offset" />
          </mxGeometry>
        </mxCell>
        <mxCell id="ynhjxwPNjTfEOPQKS7Ig-11" value="" style="edgeStyle=orthogonalEdgeStyle;rounded=0;orthogonalLoop=1;jettySize=auto;html=1;" parent="WIyWlLk6GJQsqaUBKTNV-1" source="ynhjxwPNjTfEOPQKS7Ig-5" target="ynhjxwPNjTfEOPQKS7Ig-10" edge="1">
          <mxGeometry relative="1" as="geometry" />
        </mxCell>
        <mxCell id="ynhjxwPNjTfEOPQKS7Ig-182" value="35" style="edgeLabel;html=1;align=center;verticalAlign=middle;resizable=0;points=[];" parent="ynhjxwPNjTfEOPQKS7Ig-11" vertex="1" connectable="0">
          <mxGeometry x="0.6242" y="3" relative="1" as="geometry">
            <mxPoint as="offset" />
          </mxGeometry>
        </mxCell>
        <mxCell id="ynhjxwPNjTfEOPQKS7Ig-5" value="valid details" style="rhombus;whiteSpace=wrap;html=1;" parent="WIyWlLk6GJQsqaUBKTNV-1" vertex="1">
          <mxGeometry x="75" y="810" width="80" height="80" as="geometry" />
        </mxCell>
        <mxCell id="ynhjxwPNjTfEOPQKS7Ig-7" value="display no match is found" style="whiteSpace=wrap;html=1;" parent="WIyWlLk6GJQsqaUBKTNV-1" vertex="1">
          <mxGeometry x="-40" y="970" width="120" height="60" as="geometry" />
        </mxCell>
        <mxCell id="ynhjxwPNjTfEOPQKS7Ig-10" value="display holiday details&amp;nbsp;" style="whiteSpace=wrap;html=1;" parent="WIyWlLk6GJQsqaUBKTNV-1" vertex="1">
          <mxGeometry x="140" y="970" width="120" height="60" as="geometry" />
        </mxCell>
        <mxCell id="ynhjxwPNjTfEOPQKS7Ig-20" style="edgeStyle=orthogonalEdgeStyle;rounded=0;orthogonalLoop=1;jettySize=auto;html=1;" parent="WIyWlLk6GJQsqaUBKTNV-1" source="ynhjxwPNjTfEOPQKS7Ig-12" target="ynhjxwPNjTfEOPQKS7Ig-19" edge="1">
          <mxGeometry relative="1" as="geometry">
            <Array as="points">
              <mxPoint x="500" y="610" />
              <mxPoint x="500" y="610" />
            </Array>
          </mxGeometry>
        </mxCell>
        <mxCell id="ynhjxwPNjTfEOPQKS7Ig-186" value="39" style="edgeLabel;html=1;align=center;verticalAlign=middle;resizable=0;points=[];" parent="ynhjxwPNjTfEOPQKS7Ig-20" vertex="1" connectable="0">
          <mxGeometry x="0.5268" relative="1" as="geometry">
            <mxPoint y="-24" as="offset" />
          </mxGeometry>
        </mxCell>
        <mxCell id="ynhjxwPNjTfEOPQKS7Ig-12" value="My Attendance" style="whiteSpace=wrap;html=1;" parent="WIyWlLk6GJQsqaUBKTNV-1" vertex="1">
          <mxGeometry x="440" y="532.5" width="120" height="60" as="geometry" />
        </mxCell>
        <mxCell id="ynhjxwPNjTfEOPQKS7Ig-15" value="" style="edgeStyle=orthogonalEdgeStyle;rounded=0;orthogonalLoop=1;jettySize=auto;html=1;" parent="WIyWlLk6GJQsqaUBKTNV-1" source="ynhjxwPNjTfEOPQKS7Ig-16" target="ynhjxwPNjTfEOPQKS7Ig-17" edge="1">
          <mxGeometry relative="1" as="geometry" />
        </mxCell>
        <mxCell id="ynhjxwPNjTfEOPQKS7Ig-188" value="41" style="edgeLabel;html=1;align=center;verticalAlign=middle;resizable=0;points=[];" parent="ynhjxwPNjTfEOPQKS7Ig-15" vertex="1" connectable="0">
          <mxGeometry x="0.3333" y="1" relative="1" as="geometry">
            <mxPoint x="-21" as="offset" />
          </mxGeometry>
        </mxCell>
        <mxCell id="ynhjxwPNjTfEOPQKS7Ig-16" value="select number of entries of&amp;nbsp; attendance history&amp;nbsp;" style="whiteSpace=wrap;html=1;" parent="WIyWlLk6GJQsqaUBKTNV-1" vertex="1">
          <mxGeometry x="230" y="760" width="140" height="60" as="geometry" />
        </mxCell>
        <mxCell id="ynhjxwPNjTfEOPQKS7Ig-17" value="display the attendance history&amp;nbsp;" style="whiteSpace=wrap;html=1;" parent="WIyWlLk6GJQsqaUBKTNV-1" vertex="1">
          <mxGeometry x="260" y="860" width="120" height="60" as="geometry" />
        </mxCell>
        <mxCell id="ynhjxwPNjTfEOPQKS7Ig-21" style="edgeStyle=orthogonalEdgeStyle;rounded=0;orthogonalLoop=1;jettySize=auto;html=1;" parent="WIyWlLk6GJQsqaUBKTNV-1" source="ynhjxwPNjTfEOPQKS7Ig-19" target="ynhjxwPNjTfEOPQKS7Ig-16" edge="1">
          <mxGeometry relative="1" as="geometry">
            <Array as="points">
              <mxPoint x="300" y="700" />
            </Array>
          </mxGeometry>
        </mxCell>
        <mxCell id="ynhjxwPNjTfEOPQKS7Ig-187" value="40" style="edgeLabel;html=1;align=center;verticalAlign=middle;resizable=0;points=[];" parent="ynhjxwPNjTfEOPQKS7Ig-21" vertex="1" connectable="0">
          <mxGeometry x="-0.1071" y="1" relative="1" as="geometry">
            <mxPoint as="offset" />
          </mxGeometry>
        </mxCell>
        <mxCell id="ynhjxwPNjTfEOPQKS7Ig-42" style="edgeStyle=orthogonalEdgeStyle;rounded=0;orthogonalLoop=1;jettySize=auto;html=1;" parent="WIyWlLk6GJQsqaUBKTNV-1" source="ynhjxwPNjTfEOPQKS7Ig-19" target="ynhjxwPNjTfEOPQKS7Ig-24" edge="1">
          <mxGeometry relative="1" as="geometry">
            <Array as="points">
              <mxPoint x="500" y="780" />
              <mxPoint x="440" y="780" />
            </Array>
          </mxGeometry>
        </mxCell>
        <mxCell id="ynhjxwPNjTfEOPQKS7Ig-190" value="42" style="edgeLabel;html=1;align=center;verticalAlign=middle;resizable=0;points=[];" parent="ynhjxwPNjTfEOPQKS7Ig-42" vertex="1" connectable="0">
          <mxGeometry x="0.2429" y="-3" relative="1" as="geometry">
            <mxPoint as="offset" />
          </mxGeometry>
        </mxCell>
        <mxCell id="ynhjxwPNjTfEOPQKS7Ig-43" value="46" style="edgeStyle=orthogonalEdgeStyle;rounded=0;orthogonalLoop=1;jettySize=auto;html=1;" parent="WIyWlLk6GJQsqaUBKTNV-1" source="ynhjxwPNjTfEOPQKS7Ig-19" target="ynhjxwPNjTfEOPQKS7Ig-37" edge="1">
          <mxGeometry x="0.4444" relative="1" as="geometry">
            <Array as="points">
              <mxPoint x="500" y="780" />
              <mxPoint x="560" y="780" />
            </Array>
            <mxPoint as="offset" />
          </mxGeometry>
        </mxCell>
        <mxCell id="ynhjxwPNjTfEOPQKS7Ig-19" value="search Records" style="rhombus;whiteSpace=wrap;html=1;" parent="WIyWlLk6GJQsqaUBKTNV-1" vertex="1">
          <mxGeometry x="460" y="660" width="80" height="80" as="geometry" />
        </mxCell>
        <mxCell id="ynhjxwPNjTfEOPQKS7Ig-23" value="" style="edgeStyle=orthogonalEdgeStyle;rounded=0;orthogonalLoop=1;jettySize=auto;html=1;" parent="WIyWlLk6GJQsqaUBKTNV-1" source="ynhjxwPNjTfEOPQKS7Ig-24" target="ynhjxwPNjTfEOPQKS7Ig-27" edge="1">
          <mxGeometry relative="1" as="geometry">
            <Array as="points">
              <mxPoint x="430" y="890" />
              <mxPoint x="430" y="890" />
            </Array>
          </mxGeometry>
        </mxCell>
        <mxCell id="ynhjxwPNjTfEOPQKS7Ig-24" value="input search details/terms" style="shape=parallelogram;perimeter=parallelogramPerimeter;whiteSpace=wrap;html=1;fixedSize=1;" parent="WIyWlLk6GJQsqaUBKTNV-1" vertex="1">
          <mxGeometry x="375" y="820" width="170" height="30" as="geometry" />
        </mxCell>
        <mxCell id="ynhjxwPNjTfEOPQKS7Ig-32" style="edgeStyle=orthogonalEdgeStyle;rounded=0;orthogonalLoop=1;jettySize=auto;html=1;startArrow=none;" parent="WIyWlLk6GJQsqaUBKTNV-1" target="ynhjxwPNjTfEOPQKS7Ig-30" edge="1">
          <mxGeometry relative="1" as="geometry">
            <mxPoint x="460" y="1075" as="sourcePoint" />
          </mxGeometry>
        </mxCell>
        <mxCell id="ynhjxwPNjTfEOPQKS7Ig-192" value="44" style="edgeLabel;html=1;align=center;verticalAlign=middle;resizable=0;points=[];" parent="ynhjxwPNjTfEOPQKS7Ig-32" vertex="1" connectable="0">
          <mxGeometry x="0.4783" relative="1" as="geometry">
            <mxPoint as="offset" />
          </mxGeometry>
        </mxCell>
        <mxCell id="ynhjxwPNjTfEOPQKS7Ig-33" value="45" style="edgeStyle=orthogonalEdgeStyle;rounded=0;orthogonalLoop=1;jettySize=auto;html=1;" parent="WIyWlLk6GJQsqaUBKTNV-1" source="ynhjxwPNjTfEOPQKS7Ig-27" target="ynhjxwPNjTfEOPQKS7Ig-31" edge="1">
          <mxGeometry relative="1" as="geometry">
            <Array as="points">
              <mxPoint x="465" y="1090" />
              <mxPoint x="520" y="1090" />
            </Array>
          </mxGeometry>
        </mxCell>
        <mxCell id="ynhjxwPNjTfEOPQKS7Ig-27" value="valid details" style="rhombus;whiteSpace=wrap;html=1;" parent="WIyWlLk6GJQsqaUBKTNV-1" vertex="1">
          <mxGeometry x="385" y="1035" width="80" height="80" as="geometry" />
        </mxCell>
        <mxCell id="ynhjxwPNjTfEOPQKS7Ig-30" value="display no match is found" style="whiteSpace=wrap;html=1;" parent="WIyWlLk6GJQsqaUBKTNV-1" vertex="1">
          <mxGeometry x="260" y="1165" width="120" height="60" as="geometry" />
        </mxCell>
        <mxCell id="ynhjxwPNjTfEOPQKS7Ig-31" value="display attendance details&amp;nbsp;" style="whiteSpace=wrap;html=1;" parent="WIyWlLk6GJQsqaUBKTNV-1" vertex="1">
          <mxGeometry x="360" y="1250" width="120" height="60" as="geometry" />
        </mxCell>
        <mxCell id="ynhjxwPNjTfEOPQKS7Ig-45" style="edgeStyle=orthogonalEdgeStyle;rounded=0;orthogonalLoop=1;jettySize=auto;html=1;" parent="WIyWlLk6GJQsqaUBKTNV-1" source="ynhjxwPNjTfEOPQKS7Ig-37" target="ynhjxwPNjTfEOPQKS7Ig-27" edge="1">
          <mxGeometry relative="1" as="geometry">
            <Array as="points">
              <mxPoint x="565" y="920" />
              <mxPoint x="430" y="920" />
            </Array>
          </mxGeometry>
        </mxCell>
        <mxCell id="ynhjxwPNjTfEOPQKS7Ig-191" value="43" style="edgeLabel;html=1;align=center;verticalAlign=middle;resizable=0;points=[];" parent="ynhjxwPNjTfEOPQKS7Ig-45" vertex="1" connectable="0">
          <mxGeometry x="0.3614" y="2" relative="1" as="geometry">
            <mxPoint as="offset" />
          </mxGeometry>
        </mxCell>
        <mxCell id="ynhjxwPNjTfEOPQKS7Ig-37" value="select date range" style="whiteSpace=wrap;html=1;" parent="WIyWlLk6GJQsqaUBKTNV-1" vertex="1">
          <mxGeometry x="505" y="860" width="120" height="30" as="geometry" />
        </mxCell>
        <mxCell id="ynhjxwPNjTfEOPQKS7Ig-40" value="no" style="text;html=1;align=center;verticalAlign=middle;resizable=0;points=[];autosize=1;strokeColor=none;fillColor=none;" parent="WIyWlLk6GJQsqaUBKTNV-1" vertex="1">
          <mxGeometry x="425" y="670" width="40" height="30" as="geometry" />
        </mxCell>
        <mxCell id="ynhjxwPNjTfEOPQKS7Ig-44" value="yes" style="text;html=1;align=center;verticalAlign=middle;resizable=0;points=[];autosize=1;strokeColor=none;fillColor=none;" parent="WIyWlLk6GJQsqaUBKTNV-1" vertex="1">
          <mxGeometry x="490" y="730" width="40" height="30" as="geometry" />
        </mxCell>
        <mxCell id="ynhjxwPNjTfEOPQKS7Ig-48" value="no" style="text;html=1;align=center;verticalAlign=middle;resizable=0;points=[];autosize=1;strokeColor=none;fillColor=none;" parent="WIyWlLk6GJQsqaUBKTNV-1" vertex="1">
          <mxGeometry x="70" y="905" width="40" height="30" as="geometry" />
        </mxCell>
        <mxCell id="ynhjxwPNjTfEOPQKS7Ig-49" value="yes" style="text;html=1;align=center;verticalAlign=middle;resizable=0;points=[];autosize=1;strokeColor=none;fillColor=none;" parent="WIyWlLk6GJQsqaUBKTNV-1" vertex="1">
          <mxGeometry x="130" y="905" width="40" height="30" as="geometry" />
        </mxCell>
        <mxCell id="ynhjxwPNjTfEOPQKS7Ig-57" value="48" style="edgeStyle=orthogonalEdgeStyle;rounded=0;orthogonalLoop=1;jettySize=auto;html=1;" parent="WIyWlLk6GJQsqaUBKTNV-1" source="ynhjxwPNjTfEOPQKS7Ig-51" target="ynhjxwPNjTfEOPQKS7Ig-56" edge="1">
          <mxGeometry relative="1" as="geometry" />
        </mxCell>
        <mxCell id="ynhjxwPNjTfEOPQKS7Ig-51" value="apply leave" style="whiteSpace=wrap;html=1;" parent="WIyWlLk6GJQsqaUBKTNV-1" vertex="1">
          <mxGeometry x="600" y="480" width="120" height="60" as="geometry" />
        </mxCell>
        <mxCell id="ynhjxwPNjTfEOPQKS7Ig-105" value="49" style="edgeStyle=orthogonalEdgeStyle;rounded=0;orthogonalLoop=1;jettySize=auto;html=1;" parent="WIyWlLk6GJQsqaUBKTNV-1" source="ynhjxwPNjTfEOPQKS7Ig-56" target="ynhjxwPNjTfEOPQKS7Ig-58" edge="1">
          <mxGeometry relative="1" as="geometry">
            <Array as="points">
              <mxPoint x="590" y="628" />
            </Array>
          </mxGeometry>
        </mxCell>
        <mxCell id="ynhjxwPNjTfEOPQKS7Ig-116" value="50" style="edgeStyle=orthogonalEdgeStyle;rounded=0;orthogonalLoop=1;jettySize=auto;html=1;" parent="WIyWlLk6GJQsqaUBKTNV-1" source="ynhjxwPNjTfEOPQKS7Ig-56" target="ynhjxwPNjTfEOPQKS7Ig-60" edge="1">
          <mxGeometry relative="1" as="geometry">
            <Array as="points">
              <mxPoint x="720" y="628" />
              <mxPoint x="720" y="773" />
              <mxPoint x="653" y="773" />
            </Array>
          </mxGeometry>
        </mxCell>
        <mxCell id="ynhjxwPNjTfEOPQKS7Ig-56" value="leave applied after 10 days of joining&amp;nbsp;" style="rhombus;whiteSpace=wrap;html=1;" parent="WIyWlLk6GJQsqaUBKTNV-1" vertex="1">
          <mxGeometry x="610" y="580" width="100" height="95" as="geometry" />
        </mxCell>
        <mxCell id="ynhjxwPNjTfEOPQKS7Ig-58" value="leave rejected" style="whiteSpace=wrap;html=1;" parent="WIyWlLk6GJQsqaUBKTNV-1" vertex="1">
          <mxGeometry x="550" y="685" width="120" height="60" as="geometry" />
        </mxCell>
        <mxCell id="ynhjxwPNjTfEOPQKS7Ig-99" value="51" style="edgeStyle=orthogonalEdgeStyle;rounded=0;orthogonalLoop=1;jettySize=auto;html=1;entryX=0.567;entryY=0;entryDx=0;entryDy=0;entryPerimeter=0;" parent="WIyWlLk6GJQsqaUBKTNV-1" source="ynhjxwPNjTfEOPQKS7Ig-60" target="ynhjxwPNjTfEOPQKS7Ig-64" edge="1">
          <mxGeometry relative="1" as="geometry" />
        </mxCell>
        <mxCell id="ynhjxwPNjTfEOPQKS7Ig-197" style="edgeStyle=orthogonalEdgeStyle;rounded=0;orthogonalLoop=1;jettySize=auto;html=1;entryX=0;entryY=0.75;entryDx=0;entryDy=0;" parent="WIyWlLk6GJQsqaUBKTNV-1" source="ynhjxwPNjTfEOPQKS7Ig-60" target="ynhjxwPNjTfEOPQKS7Ig-66" edge="1">
          <mxGeometry relative="1" as="geometry">
            <Array as="points">
              <mxPoint x="530" y="930" />
              <mxPoint x="530" y="1230" />
            </Array>
          </mxGeometry>
        </mxCell>
        <mxCell id="ynhjxwPNjTfEOPQKS7Ig-200" value="54" style="edgeLabel;html=1;align=center;verticalAlign=middle;resizable=0;points=[];" parent="ynhjxwPNjTfEOPQKS7Ig-197" vertex="1" connectable="0">
          <mxGeometry x="-0.279" y="-2" relative="1" as="geometry">
            <mxPoint y="1" as="offset" />
          </mxGeometry>
        </mxCell>
        <mxCell id="ynhjxwPNjTfEOPQKS7Ig-60" value="leave type is floater Or compensatory&amp;nbsp;&amp;nbsp;" style="rhombus;whiteSpace=wrap;html=1;" parent="WIyWlLk6GJQsqaUBKTNV-1" vertex="1">
          <mxGeometry x="600" y="880" width="105" height="105" as="geometry" />
        </mxCell>
        <mxCell id="ynhjxwPNjTfEOPQKS7Ig-62" value="yes" style="text;html=1;align=center;verticalAlign=middle;resizable=0;points=[];autosize=1;strokeColor=none;fillColor=none;" parent="WIyWlLk6GJQsqaUBKTNV-1" vertex="1">
          <mxGeometry x="425" y="1180" width="40" height="30" as="geometry" />
        </mxCell>
        <mxCell id="ynhjxwPNjTfEOPQKS7Ig-100" value="52" style="edgeStyle=orthogonalEdgeStyle;rounded=0;orthogonalLoop=1;jettySize=auto;html=1;" parent="WIyWlLk6GJQsqaUBKTNV-1" source="ynhjxwPNjTfEOPQKS7Ig-64" target="ynhjxwPNjTfEOPQKS7Ig-66" edge="1">
          <mxGeometry relative="1" as="geometry">
            <Array as="points">
              <mxPoint x="610" y="1240" />
            </Array>
          </mxGeometry>
        </mxCell>
        <mxCell id="ynhjxwPNjTfEOPQKS7Ig-64" value="input floater compensatory holiday notes" style="whiteSpace=wrap;html=1;" parent="WIyWlLk6GJQsqaUBKTNV-1" vertex="1">
          <mxGeometry x="550" y="1060" width="120" height="50" as="geometry" />
        </mxCell>
        <mxCell id="ynhjxwPNjTfEOPQKS7Ig-75" value="53" style="edgeStyle=orthogonalEdgeStyle;rounded=0;orthogonalLoop=1;jettySize=auto;html=1;" parent="WIyWlLk6GJQsqaUBKTNV-1" source="ynhjxwPNjTfEOPQKS7Ig-66" target="ynhjxwPNjTfEOPQKS7Ig-74" edge="1">
          <mxGeometry relative="1" as="geometry" />
        </mxCell>
        <mxCell id="ynhjxwPNjTfEOPQKS7Ig-66" value="input Reason" style="whiteSpace=wrap;html=1;" parent="WIyWlLk6GJQsqaUBKTNV-1" vertex="1">
          <mxGeometry x="550" y="1200" width="120" height="40" as="geometry" />
        </mxCell>
        <mxCell id="ynhjxwPNjTfEOPQKS7Ig-206" style="edgeStyle=orthogonalEdgeStyle;rounded=0;orthogonalLoop=1;jettySize=auto;html=1;entryX=0;entryY=0.5;entryDx=0;entryDy=0;" parent="WIyWlLk6GJQsqaUBKTNV-1" source="ynhjxwPNjTfEOPQKS7Ig-74" target="ynhjxwPNjTfEOPQKS7Ig-82" edge="1">
          <mxGeometry relative="1" as="geometry">
            <Array as="points">
              <mxPoint x="1090" y="1330" />
              <mxPoint x="1090" y="1210" />
            </Array>
          </mxGeometry>
        </mxCell>
        <mxCell id="ynhjxwPNjTfEOPQKS7Ig-207" value="75" style="edgeLabel;html=1;align=center;verticalAlign=middle;resizable=0;points=[];" parent="ynhjxwPNjTfEOPQKS7Ig-206" vertex="1" connectable="0">
          <mxGeometry x="-0.1173" y="-1" relative="1" as="geometry">
            <mxPoint as="offset" />
          </mxGeometry>
        </mxCell>
        <mxCell id="ynhjxwPNjTfEOPQKS7Ig-74" value="applied" style="whiteSpace=wrap;html=1;" parent="WIyWlLk6GJQsqaUBKTNV-1" vertex="1">
          <mxGeometry x="550" y="1310" width="120" height="60" as="geometry" />
        </mxCell>
        <mxCell id="ynhjxwPNjTfEOPQKS7Ig-81" value="56" style="edgeStyle=orthogonalEdgeStyle;rounded=0;orthogonalLoop=1;jettySize=auto;html=1;" parent="WIyWlLk6GJQsqaUBKTNV-1" source="ynhjxwPNjTfEOPQKS7Ig-76" target="ynhjxwPNjTfEOPQKS7Ig-80" edge="1">
          <mxGeometry relative="1" as="geometry" />
        </mxCell>
        <mxCell id="ynhjxwPNjTfEOPQKS7Ig-83" value="" style="edgeStyle=orthogonalEdgeStyle;rounded=0;orthogonalLoop=1;jettySize=auto;html=1;" parent="WIyWlLk6GJQsqaUBKTNV-1" source="ynhjxwPNjTfEOPQKS7Ig-76" target="ynhjxwPNjTfEOPQKS7Ig-82" edge="1">
          <mxGeometry relative="1" as="geometry">
            <Array as="points">
              <mxPoint x="1390" y="490" />
              <mxPoint x="1390" y="1390" />
            </Array>
          </mxGeometry>
        </mxCell>
        <mxCell id="ynhjxwPNjTfEOPQKS7Ig-204" value="74" style="edgeLabel;html=1;align=center;verticalAlign=middle;resizable=0;points=[];" parent="ynhjxwPNjTfEOPQKS7Ig-83" vertex="1" connectable="0">
          <mxGeometry x="-0.8329" y="2" relative="1" as="geometry">
            <mxPoint as="offset" />
          </mxGeometry>
        </mxCell>
        <mxCell id="ynhjxwPNjTfEOPQKS7Ig-205" value="74" style="edgeLabel;html=1;align=center;verticalAlign=middle;resizable=0;points=[];" parent="ynhjxwPNjTfEOPQKS7Ig-83" vertex="1" connectable="0">
          <mxGeometry x="0.1418" y="3" relative="1" as="geometry">
            <mxPoint as="offset" />
          </mxGeometry>
        </mxCell>
        <mxCell id="ynhjxwPNjTfEOPQKS7Ig-86" value="71" style="edgeStyle=orthogonalEdgeStyle;rounded=0;orthogonalLoop=1;jettySize=auto;html=1;" parent="WIyWlLk6GJQsqaUBKTNV-1" source="ynhjxwPNjTfEOPQKS7Ig-76" target="ynhjxwPNjTfEOPQKS7Ig-85" edge="1">
          <mxGeometry relative="1" as="geometry">
            <Array as="points">
              <mxPoint x="960" y="560" />
            </Array>
          </mxGeometry>
        </mxCell>
        <mxCell id="ynhjxwPNjTfEOPQKS7Ig-76" value="Profile Icon" style="whiteSpace=wrap;html=1;" parent="WIyWlLk6GJQsqaUBKTNV-1" vertex="1">
          <mxGeometry x="900" y="460" width="120" height="60" as="geometry" />
        </mxCell>
        <mxCell id="ynhjxwPNjTfEOPQKS7Ig-90" value="57" style="edgeStyle=orthogonalEdgeStyle;rounded=0;orthogonalLoop=1;jettySize=auto;html=1;" parent="WIyWlLk6GJQsqaUBKTNV-1" source="ynhjxwPNjTfEOPQKS7Ig-80" target="ynhjxwPNjTfEOPQKS7Ig-89" edge="1">
          <mxGeometry x="0.3103" relative="1" as="geometry">
            <Array as="points">
              <mxPoint x="830" y="660" />
              <mxPoint x="830" y="660" />
            </Array>
            <mxPoint y="1" as="offset" />
          </mxGeometry>
        </mxCell>
        <mxCell id="ynhjxwPNjTfEOPQKS7Ig-123" value="" style="edgeStyle=orthogonalEdgeStyle;rounded=0;orthogonalLoop=1;jettySize=auto;html=1;" parent="WIyWlLk6GJQsqaUBKTNV-1" source="ynhjxwPNjTfEOPQKS7Ig-80" target="ynhjxwPNjTfEOPQKS7Ig-122" edge="1">
          <mxGeometry relative="1" as="geometry">
            <Array as="points">
              <mxPoint x="830" y="640" />
              <mxPoint x="970" y="640" />
            </Array>
          </mxGeometry>
        </mxCell>
        <mxCell id="ynhjxwPNjTfEOPQKS7Ig-202" value="64" style="edgeLabel;html=1;align=center;verticalAlign=middle;resizable=0;points=[];" parent="ynhjxwPNjTfEOPQKS7Ig-123" vertex="1" connectable="0">
          <mxGeometry x="0.68" y="1" relative="1" as="geometry">
            <mxPoint as="offset" />
          </mxGeometry>
        </mxCell>
        <mxCell id="ynhjxwPNjTfEOPQKS7Ig-133" value="69" style="edgeStyle=orthogonalEdgeStyle;rounded=0;orthogonalLoop=1;jettySize=auto;html=1;" parent="WIyWlLk6GJQsqaUBKTNV-1" source="ynhjxwPNjTfEOPQKS7Ig-80" target="ynhjxwPNjTfEOPQKS7Ig-132" edge="1">
          <mxGeometry x="0.894" relative="1" as="geometry">
            <Array as="points">
              <mxPoint x="830" y="640" />
              <mxPoint x="1140" y="640" />
            </Array>
            <mxPoint y="1" as="offset" />
          </mxGeometry>
        </mxCell>
        <mxCell id="ynhjxwPNjTfEOPQKS7Ig-80" value="profile" style="whiteSpace=wrap;html=1;" parent="WIyWlLk6GJQsqaUBKTNV-1" vertex="1">
          <mxGeometry x="770" y="552.5" width="120" height="60" as="geometry" />
        </mxCell>
        <mxCell id="ynhjxwPNjTfEOPQKS7Ig-82" value="logout" style="whiteSpace=wrap;html=1;" parent="WIyWlLk6GJQsqaUBKTNV-1" vertex="1">
          <mxGeometry x="1170" y="1180" width="120" height="60" as="geometry" />
        </mxCell>
        <mxCell id="ynhjxwPNjTfEOPQKS7Ig-141" value="72" style="edgeStyle=orthogonalEdgeStyle;rounded=0;orthogonalLoop=1;jettySize=auto;html=1;" parent="WIyWlLk6GJQsqaUBKTNV-1" source="ynhjxwPNjTfEOPQKS7Ig-85" target="ynhjxwPNjTfEOPQKS7Ig-142" edge="1">
          <mxGeometry relative="1" as="geometry">
            <mxPoint x="1241" y="630" as="targetPoint" />
          </mxGeometry>
        </mxCell>
        <mxCell id="ynhjxwPNjTfEOPQKS7Ig-85" value="change password" style="whiteSpace=wrap;html=1;" parent="WIyWlLk6GJQsqaUBKTNV-1" vertex="1">
          <mxGeometry x="1241" y="532.5" width="120" height="60" as="geometry" />
        </mxCell>
        <mxCell id="ynhjxwPNjTfEOPQKS7Ig-96" value="" style="edgeStyle=orthogonalEdgeStyle;rounded=0;orthogonalLoop=1;jettySize=auto;html=1;entryX=0.5;entryY=0.8;entryDx=0;entryDy=0;entryPerimeter=0;" parent="WIyWlLk6GJQsqaUBKTNV-1" source="ynhjxwPNjTfEOPQKS7Ig-89" target="ynhjxwPNjTfEOPQKS7Ig-95" edge="1">
          <mxGeometry relative="1" as="geometry" />
        </mxCell>
        <mxCell id="ynhjxwPNjTfEOPQKS7Ig-203" value="58" style="edgeLabel;html=1;align=center;verticalAlign=middle;resizable=0;points=[];" parent="ynhjxwPNjTfEOPQKS7Ig-96" vertex="1" connectable="0">
          <mxGeometry x="0.2405" y="2" relative="1" as="geometry">
            <mxPoint as="offset" />
          </mxGeometry>
        </mxCell>
        <mxCell id="ynhjxwPNjTfEOPQKS7Ig-89" value="change/upload profile image" style="whiteSpace=wrap;html=1;" parent="WIyWlLk6GJQsqaUBKTNV-1" vertex="1">
          <mxGeometry x="770" y="685" width="120" height="60" as="geometry" />
        </mxCell>
        <mxCell id="ynhjxwPNjTfEOPQKS7Ig-102" value="59" style="edgeStyle=orthogonalEdgeStyle;rounded=0;orthogonalLoop=1;jettySize=auto;html=1;" parent="WIyWlLk6GJQsqaUBKTNV-1" source="ynhjxwPNjTfEOPQKS7Ig-95" target="ynhjxwPNjTfEOPQKS7Ig-101" edge="1">
          <mxGeometry relative="1" as="geometry" />
        </mxCell>
        <mxCell id="ynhjxwPNjTfEOPQKS7Ig-95" value="upload image" style="shape=document;whiteSpace=wrap;html=1;boundedLbl=1;rotation=0;direction=west;" parent="WIyWlLk6GJQsqaUBKTNV-1" vertex="1">
          <mxGeometry x="770" y="810" width="120" height="70" as="geometry" />
        </mxCell>
        <mxCell id="ynhjxwPNjTfEOPQKS7Ig-109" value="60" style="edgeStyle=orthogonalEdgeStyle;rounded=0;orthogonalLoop=1;jettySize=auto;html=1;" parent="WIyWlLk6GJQsqaUBKTNV-1" source="ynhjxwPNjTfEOPQKS7Ig-101" target="ynhjxwPNjTfEOPQKS7Ig-108" edge="1">
          <mxGeometry relative="1" as="geometry">
            <Array as="points">
              <mxPoint x="750" y="1005" />
            </Array>
          </mxGeometry>
        </mxCell>
        <mxCell id="ynhjxwPNjTfEOPQKS7Ig-112" value="63" style="edgeStyle=orthogonalEdgeStyle;rounded=0;orthogonalLoop=1;jettySize=auto;html=1;" parent="WIyWlLk6GJQsqaUBKTNV-1" source="ynhjxwPNjTfEOPQKS7Ig-101" target="ynhjxwPNjTfEOPQKS7Ig-111" edge="1">
          <mxGeometry relative="1" as="geometry" />
        </mxCell>
        <mxCell id="ynhjxwPNjTfEOPQKS7Ig-101" value="valid" style="rhombus;whiteSpace=wrap;html=1;" parent="WIyWlLk6GJQsqaUBKTNV-1" vertex="1">
          <mxGeometry x="790" y="965" width="80" height="80" as="geometry" />
        </mxCell>
        <mxCell id="ynhjxwPNjTfEOPQKS7Ig-107" value="no" style="text;html=1;align=center;verticalAlign=middle;resizable=0;points=[];autosize=1;strokeColor=none;fillColor=none;" parent="WIyWlLk6GJQsqaUBKTNV-1" vertex="1">
          <mxGeometry x="350" y="1045" width="40" height="30" as="geometry" />
        </mxCell>
        <mxCell id="ynhjxwPNjTfEOPQKS7Ig-118" value="61" style="edgeStyle=orthogonalEdgeStyle;rounded=0;orthogonalLoop=1;jettySize=auto;html=1;entryX=1;entryY=0.5;entryDx=0;entryDy=0;exitX=0;exitY=0.5;exitDx=0;exitDy=0;" parent="WIyWlLk6GJQsqaUBKTNV-1" source="ynhjxwPNjTfEOPQKS7Ig-108" target="ynhjxwPNjTfEOPQKS7Ig-95" edge="1">
          <mxGeometry relative="1" as="geometry">
            <Array as="points">
              <mxPoint x="680" y="1130" />
              <mxPoint x="680" y="1030" />
              <mxPoint x="720" y="1030" />
              <mxPoint x="720" y="845" />
            </Array>
          </mxGeometry>
        </mxCell>
        <mxCell id="ynhjxwPNjTfEOPQKS7Ig-108" value="image type should be jpg, jpeg or png" style="whiteSpace=wrap;html=1;" parent="WIyWlLk6GJQsqaUBKTNV-1" vertex="1">
          <mxGeometry x="690" y="1100" width="120" height="60" as="geometry" />
        </mxCell>
        <mxCell id="ynhjxwPNjTfEOPQKS7Ig-111" value="profile image uploaded sucessfully" style="whiteSpace=wrap;html=1;" parent="WIyWlLk6GJQsqaUBKTNV-1" vertex="1">
          <mxGeometry x="770" y="1200" width="120" height="60" as="geometry" />
        </mxCell>
        <mxCell id="ynhjxwPNjTfEOPQKS7Ig-114" value="no" style="text;html=1;align=center;verticalAlign=middle;resizable=0;points=[];autosize=1;strokeColor=none;fillColor=none;" parent="WIyWlLk6GJQsqaUBKTNV-1" vertex="1">
          <mxGeometry x="760" y="975" width="40" height="30" as="geometry" />
        </mxCell>
        <mxCell id="ynhjxwPNjTfEOPQKS7Ig-120" value="yes" style="text;html=1;align=center;verticalAlign=middle;resizable=0;points=[];autosize=1;strokeColor=none;fillColor=none;" parent="WIyWlLk6GJQsqaUBKTNV-1" vertex="1">
          <mxGeometry x="820" y="1040" width="40" height="30" as="geometry" />
        </mxCell>
        <mxCell id="ynhjxwPNjTfEOPQKS7Ig-125" value="65" style="edgeStyle=orthogonalEdgeStyle;rounded=0;orthogonalLoop=1;jettySize=auto;html=1;" parent="WIyWlLk6GJQsqaUBKTNV-1" source="ynhjxwPNjTfEOPQKS7Ig-122" target="ynhjxwPNjTfEOPQKS7Ig-124" edge="1">
          <mxGeometry relative="1" as="geometry">
            <Array as="points">
              <mxPoint x="950" y="770" />
              <mxPoint x="950" y="770" />
            </Array>
          </mxGeometry>
        </mxCell>
        <mxCell id="ynhjxwPNjTfEOPQKS7Ig-122" value="input profile credentials" style="whiteSpace=wrap;html=1;" parent="WIyWlLk6GJQsqaUBKTNV-1" vertex="1">
          <mxGeometry x="910" y="685" width="120" height="60" as="geometry" />
        </mxCell>
        <mxCell id="ynhjxwPNjTfEOPQKS7Ig-129" value="67" style="edgeStyle=orthogonalEdgeStyle;rounded=0;orthogonalLoop=1;jettySize=auto;html=1;" parent="WIyWlLk6GJQsqaUBKTNV-1" source="ynhjxwPNjTfEOPQKS7Ig-124" target="ynhjxwPNjTfEOPQKS7Ig-128" edge="1">
          <mxGeometry relative="1" as="geometry" />
        </mxCell>
        <mxCell id="ynhjxwPNjTfEOPQKS7Ig-134" value="66" style="edgeStyle=orthogonalEdgeStyle;rounded=0;orthogonalLoop=1;jettySize=auto;html=1;" parent="WIyWlLk6GJQsqaUBKTNV-1" source="ynhjxwPNjTfEOPQKS7Ig-124" target="ynhjxwPNjTfEOPQKS7Ig-126" edge="1">
          <mxGeometry relative="1" as="geometry" />
        </mxCell>
        <mxCell id="ynhjxwPNjTfEOPQKS7Ig-124" value="valid credentials&amp;nbsp;" style="rhombus;whiteSpace=wrap;html=1;" parent="WIyWlLk6GJQsqaUBKTNV-1" vertex="1">
          <mxGeometry x="910" y="830" width="80" height="80" as="geometry" />
        </mxCell>
        <mxCell id="ynhjxwPNjTfEOPQKS7Ig-126" value="profile info updated" style="whiteSpace=wrap;html=1;" parent="WIyWlLk6GJQsqaUBKTNV-1" vertex="1">
          <mxGeometry x="890" y="980" width="120" height="60" as="geometry" />
        </mxCell>
        <mxCell id="ynhjxwPNjTfEOPQKS7Ig-130" value="68" style="edgeStyle=orthogonalEdgeStyle;rounded=0;orthogonalLoop=1;jettySize=auto;html=1;entryX=1;entryY=0.5;entryDx=0;entryDy=0;" parent="WIyWlLk6GJQsqaUBKTNV-1" source="ynhjxwPNjTfEOPQKS7Ig-128" target="ynhjxwPNjTfEOPQKS7Ig-122" edge="1">
          <mxGeometry relative="1" as="geometry">
            <Array as="points">
              <mxPoint x="1070" y="715" />
            </Array>
          </mxGeometry>
        </mxCell>
        <mxCell id="ynhjxwPNjTfEOPQKS7Ig-128" value="fill appropriate information" style="whiteSpace=wrap;html=1;" parent="WIyWlLk6GJQsqaUBKTNV-1" vertex="1">
          <mxGeometry x="1040" y="840" width="120" height="60" as="geometry" />
        </mxCell>
        <mxCell id="ynhjxwPNjTfEOPQKS7Ig-136" value="70" style="edgeStyle=orthogonalEdgeStyle;rounded=0;orthogonalLoop=1;jettySize=auto;html=1;" parent="WIyWlLk6GJQsqaUBKTNV-1" source="ynhjxwPNjTfEOPQKS7Ig-132" target="ynhjxwPNjTfEOPQKS7Ig-135" edge="1">
          <mxGeometry relative="1" as="geometry" />
        </mxCell>
        <mxCell id="ynhjxwPNjTfEOPQKS7Ig-132" value="overview" style="whiteSpace=wrap;html=1;" parent="WIyWlLk6GJQsqaUBKTNV-1" vertex="1">
          <mxGeometry x="1080" y="680" width="120" height="60" as="geometry" />
        </mxCell>
        <mxCell id="ynhjxwPNjTfEOPQKS7Ig-135" value="display profile overview" style="whiteSpace=wrap;html=1;" parent="WIyWlLk6GJQsqaUBKTNV-1" vertex="1">
          <mxGeometry x="1200" y="860" width="120" height="60" as="geometry" />
        </mxCell>
        <mxCell id="ynhjxwPNjTfEOPQKS7Ig-144" value="73" style="edgeStyle=orthogonalEdgeStyle;rounded=0;orthogonalLoop=1;jettySize=auto;html=1;" parent="WIyWlLk6GJQsqaUBKTNV-1" source="ynhjxwPNjTfEOPQKS7Ig-142" target="ynhjxwPNjTfEOPQKS7Ig-143" edge="1">
          <mxGeometry relative="1" as="geometry" />
        </mxCell>
        <mxCell id="ynhjxwPNjTfEOPQKS7Ig-142" value="input password" style="shape=parallelogram;perimeter=parallelogramPerimeter;whiteSpace=wrap;html=1;fixedSize=1;" parent="WIyWlLk6GJQsqaUBKTNV-1" vertex="1">
          <mxGeometry x="1221" y="635" width="160" height="30" as="geometry" />
        </mxCell>
        <mxCell id="ynhjxwPNjTfEOPQKS7Ig-143" value="password updated" style="whiteSpace=wrap;html=1;" parent="WIyWlLk6GJQsqaUBKTNV-1" vertex="1">
          <mxGeometry x="1241" y="710" width="120" height="40" as="geometry" />
        </mxCell>
        <mxCell id="ynhjxwPNjTfEOPQKS7Ig-148" value="5" style="text;html=1;strokeColor=none;fillColor=none;align=center;verticalAlign=middle;whiteSpace=wrap;rounded=0;" parent="WIyWlLk6GJQsqaUBKTNV-1" vertex="1">
          <mxGeometry x="-413" y="440" width="60" height="30" as="geometry" />
        </mxCell>
        <mxCell id="ynhjxwPNjTfEOPQKS7Ig-194" value="no" style="text;html=1;align=center;verticalAlign=middle;resizable=0;points=[];autosize=1;strokeColor=none;fillColor=none;" parent="WIyWlLk6GJQsqaUBKTNV-1" vertex="1">
          <mxGeometry x="590" y="605" width="40" height="30" as="geometry" />
        </mxCell>
        <mxCell id="ynhjxwPNjTfEOPQKS7Ig-195" value="yes" style="text;html=1;align=center;verticalAlign=middle;resizable=0;points=[];autosize=1;strokeColor=none;fillColor=none;" parent="WIyWlLk6GJQsqaUBKTNV-1" vertex="1">
          <mxGeometry x="665" y="750" width="40" height="30" as="geometry" />
        </mxCell>
        <mxCell id="ynhjxwPNjTfEOPQKS7Ig-198" value="no" style="text;html=1;align=center;verticalAlign=middle;resizable=0;points=[];autosize=1;strokeColor=none;fillColor=none;" parent="WIyWlLk6GJQsqaUBKTNV-1" vertex="1">
          <mxGeometry x="570" y="925" width="40" height="30" as="geometry" />
        </mxCell>
        <mxCell id="ynhjxwPNjTfEOPQKS7Ig-199" value="yes" style="text;html=1;align=center;verticalAlign=middle;resizable=0;points=[];autosize=1;strokeColor=none;fillColor=none;" parent="WIyWlLk6GJQsqaUBKTNV-1" vertex="1">
          <mxGeometry x="650" y="975" width="40" height="30" as="geometry" />
        </mxCell>
        <mxCell id="sIcRhkEwSik-rume-xdH-7" value="by searching" style="text;html=1;align=center;verticalAlign=middle;resizable=0;points=[];autosize=1;strokeColor=none;fillColor=none;" parent="WIyWlLk6GJQsqaUBKTNV-1" vertex="1">
          <mxGeometry x="10" y="675" width="90" height="30" as="geometry" />
        </mxCell>
        <mxCell id="ynhjxwPNjTfEOPQKS7Ig-208" value="" style="edgeStyle=orthogonalEdgeStyle;rounded=0;orthogonalLoop=1;jettySize=auto;html=1;entryX=0.5;entryY=0;entryDx=0;entryDy=0;endArrow=none;" parent="WIyWlLk6GJQsqaUBKTNV-1" source="sIcRhkEwSik-rume-xdH-0" target="sIcRhkEwSik-rume-xdH-7" edge="1">
          <mxGeometry relative="1" as="geometry">
            <mxPoint y="680" as="sourcePoint" />
            <mxPoint x="115" y="730" as="targetPoint" />
            <Array as="points" />
          </mxGeometry>
        </mxCell>
        <mxCell id="ynhjxwPNjTfEOPQKS7Ig-209" value="32" style="edgeLabel;html=1;align=center;verticalAlign=middle;resizable=0;points=[];" parent="ynhjxwPNjTfEOPQKS7Ig-208" vertex="1" connectable="0">
          <mxGeometry x="-0.6848" y="-1" relative="1" as="geometry">
            <mxPoint as="offset" />
          </mxGeometry>
        </mxCell>
      </root>
    </mxGraphModel>
  </diagram>
</mxfile>
